<svg xmlns="http://www.w3.org/2000/svg" viewBox="0 0 1024 1024" xml:space="preserve"><path d="M450.56 4.435c-63.986 7.703-132.65 30.042-186.724 60.749-72.327 41.073-131.653 96.176-177.385 164.759C21.952 326.669-9.038 449.052 2.657 560.846 19.013 717.197 100.734 853.076 230.4 939.52c61.315 40.877 124.514 65.975 200.533 79.639 20.518 3.688 26.746 3.988 82.774 3.988 55.935 0 62.224-.302 81.92-3.932 67.366-12.414 125.311-33.752 178.346-65.676 126.028-75.861 211.698-196.475 241.382-339.837 7.998-38.623 9.101-53.619 8.144-110.681-.71-42.375-1.507-55.119-4.452-71.234-17.539-95.975-53.356-174.763-111.722-245.76-15.956-19.409-52.848-55.832-72.809-71.882C759.055 53.466 668.735 15.347 574.234 4.293c-27.784-3.251-96.145-3.172-123.674.142m118.515 16.92c90.659 10.605 168.248 41.793 243.298 97.796 23.507 17.542 70.931 64.219 88.753 87.356 16.846 21.869 38.087 54.349 45.76 69.973 5.973 12.16 6.287 13.653 6.286 29.867-.001 15.182-.502 18.016-4.541 25.668-6.71 12.716-16.493 20.672-45.852 37.288-14.523 8.219-27.858 16.362-29.633 18.095-3.163 3.089-3.122 3.57 2.083 24.197 17.57 69.629 17.572 136.183.006 203.175-2.884 10.999-4.845 21.035-4.359 22.302.486 1.268 11.522 8.314 24.524 15.658 35.975 20.32 40.863 23.819 47.737 34.173 6.098 9.183 10.811 24.035 10.863 34.232.11 21.4-23.501 62.471-63.192 109.924-70.574 84.374-168.307 143.153-276.561 166.331-35.811 7.667-60.981 10.191-101.394 10.164-94.941-.062-183.045-25.467-261.908-75.522-73.158-46.433-129.702-106.675-172.243-183.507C23.34 648.536 5.444 527.434 29.107 412.909 61.495 256.15 169.793 122.522 315.733 59.24a508.077 508.077 0 0 1 144.214-38.644c21.337-2.454 85.474-2.008 109.128.759m-78.049 57.889c-1.606 1.606-2.919 3.287-2.919 3.736 0 3.705 62.749 110.187 67.414 114.4 2.238 2.02 7.377 4.2 11.42 4.845 17.042 2.715 42.883 10.171 62.819 18.125 41.611 16.601 70.647 36.181 105.907 71.415 19.945 19.931 27.881 29.361 40.279 47.862 13.051 19.476 16.072 22.997 19.533 22.762 4.925-.333 97.184-51.696 98.359-54.758 1.59-4.143-1.228-10.028-14.514-30.313-56.151-85.73-139.331-149.834-233.61-180.034-40.631-13.016-74.227-18.684-118.421-19.981-29.997-.88-33.641-.685-36.267 1.941m-57.159 4.809c-2.672 3.255-35.098 174.892-35.064 185.6.023 7.236 5.527 26.988 24.018 86.187 13.194 42.24 27.59 88.572 31.991 102.959l8.002 26.159-2.952 10.905c-7.808 28.847 4.511 56.545 30.382 68.31 8.769 3.988 12.936 4.836 23.463 4.773 15.197-.09 24.406-3.645 36.452-14.071 5.811-5.029 9.68-7.046 13.571-7.073 17.547-.123 99.871-5.052 102.723-6.151 4.944-1.904 102.56-66.401 103.983-68.704 1.887-3.053-.436-8.056-4.602-9.911-2.094-.933-29.535-8.087-60.981-15.898l-57.173-14.202-46.08 14.795c-25.344 8.137-46.993 14.79-48.109 14.785-2.969-.014-3.496-6.666-7.432-93.876-1.971-43.648-4.149-88.648-4.84-99.999l-1.257-20.639-48.304-83.041c-41.272-70.953-48.866-83.041-52.172-83.041-2.127 0-4.656.96-5.619 2.133m141.28 10.691c60.813 9.173 116.811 30.726 167.766 64.572 51.126 33.96 90.102 72.717 123.703 123.007 10.004 14.973 12.022 19.043 10.253 20.674-2.988 2.756-76.082 43.456-78.043 43.456-.857 0-6.714-7.394-13.015-16.432-50.166-71.953-119.452-119.59-200.418-137.796-11.919-2.68-20.5-5.541-22.232-7.415-1.552-1.677-13.834-21.866-27.293-44.863-13.46-22.998-25.657-43.665-27.106-45.927l-2.633-4.114 25.549 1.067c14.052.587 33.613 2.284 43.469 3.771m-215.894 10.06c-71.247 27.756-134.714 73.563-182.194 131.499-53.194 64.909-84.37 135.277-97.194 219.377-3.53 23.156-2.964 97.035.922 120.32 4.211 25.228 14.797 66.371 22.424 87.151 8.185 22.302 27.188 60.89 39.445 80.102 104.677 164.07 299.747 241.294 482.791 191.127 108.928-29.854 200.707-98.701 260.942-195.743 5.012-8.076 7.948-14.647 7.606-17.03-.414-2.897-4.663-6.203-16.768-13.048-65.038-36.773-79.566-44.666-82.219-44.666-1.942 0-7.548 6.846-15.815 19.311-58.898 88.818-151.068 141.963-252.686 145.7-112.435 4.135-213.489-47.819-276.592-142.203-32.344-48.376-49.317-101.3-51.376-160.194-1.959-56.04 6.67-99.427 29.19-146.774 16.042-33.728 32.973-58.306 58.003-84.2 18.956-19.609 35.121-32.815 60.393-49.337 10.614-6.939 19.62-13.524 20.013-14.633 2.217-6.26 23.472-119.333 23.637-125.75.197-7.619.151-7.682-5.775-8.001-3.626-.195-13.351 2.552-24.747 6.992m127.014 77.809c22.601 38.955 41.095 72.363 41.098 74.24.021 13.917 10.431 216.125 11.234 218.219.563 1.466 2.422 3.109 4.132 3.652 1.714.544 23.668-5.661 48.909-13.822 25.19-8.145 48.509-15.522 51.82-16.393 5.059-1.332 13.612.338 53.637 10.473 26.19 6.632 47.865 12.058 48.167 12.058 6.745 0-70.451 52-83.931 56.536-6.408 2.157-20.008 3.348-54.613 4.781-25.344 1.051-48.522 2.219-51.506 2.596l-5.426.687 2.551-7.127c3.756-10.494 3.387-22.804-.989-32.976-11.344-26.371-43.33-32.846-66.333-13.429-3.227 2.724-6.266 4.118-7.087 3.25-.791-.835-15.491-46.83-32.666-102.211-23.711-76.456-31.381-103.385-31.866-111.876-.502-8.787 2.331-26.696 13.226-83.626 15.334-80.127 15.164-79.359 17.146-77.31.772.798 19.896 33.324 42.497 72.278M374.483 119.04c-.494 2.581-5.296 27.349-10.671 55.04l-9.771 50.347-8.487 5.58c-36.728 24.149-66.596 50.231-88.209 77.03-34.722 43.052-58.999 95.275-68.124 146.544-5.068 28.474-6.225 78.012-2.453 105.013 9.632 68.939 38.635 127.997 89.651 182.551 45.65 48.817 105.096 81.184 176.701 96.21 19.986 4.194 25.742 4.664 58.027 4.736 38.082.084 52.391-1.632 85.912-10.303 75.61-19.558 145.546-70.045 191.628-138.335 4.637-6.871 9.367-12.487 10.512-12.48 3.86.024 77.169 42.36 77.685 44.863.622 3.023-19.075 32.606-34.891 52.404-6.375 7.979-20.463 23.339-31.309 34.133-34.536 34.374-66.926 57.367-111.804 79.367-63.405 31.084-117.099 43.778-185.173 43.778-68.208 0-126.563-13.529-185.94-43.106C203.004 830.264 120.25 719.359 95.275 580.835c-3.489-19.352-3.943-27.166-3.898-67.128.043-38.941.581-48.311 3.871-67.414 12.112-70.32 37.259-128.698 80.178-186.132 44.578-59.655 103.318-105.957 173.193-136.52 24.587-10.754 27.128-11.206 25.864-4.601M975.791 339.2c20.332 54.748 29.161 101.105 30.636 160.853 1.449 58.693-3.143 95.765-18.603 150.187-5.113 17.999-17.959 54.352-20.055 56.751-.616.706-2.819-3.902-4.894-10.24-4.439-13.558-12.862-25.672-22.947-33-3.979-2.892-17.467-11.04-29.974-18.107-12.507-7.067-23.128-13.862-23.603-15.1-.475-1.238.772-8.213 2.771-15.501 10.164-37.047 14.886-86.575 12.102-126.935-1.8-26.099-7.344-61.532-12.776-81.651-1.354-5.013-2.092-10.078-1.64-11.254.451-1.177 11.728-8.172 25.06-15.546 33.322-18.431 46.652-31.515 52.521-51.55 1.169-3.99 2.679-7.254 3.357-7.254.678 0 4.298 8.256 8.045 18.347M271.856 462.485c-15.05 7.582-25.119 19.317-29.802 34.732-3.347 11.022-3.497 13.225-1.637 24.076 4.284 24.982 21.054 42.042 46.503 47.306 25.384 5.25 54.614-13.228 62.339-39.409 5.535-18.76-.425-42.116-14.283-55.974-10.621-10.621-21.016-14.863-38.016-15.514-13.422-.513-15.299-.156-25.104 4.783m40.092 11.201c14.031 5.853 24.04 20.313 25.545 36.906.794 8.764.249 11.255-4.639 21.183-4.27 8.675-7.294 12.365-13.204 16.113-19.379 12.289-40.766 9.73-55.563-6.649-5.926-6.56-11.5-20.318-11.5-28.386 0-14.049 11.254-31.753 24.286-38.203 8.882-4.397 25.734-4.86 35.075-.964m215.877 14.115c5.872 3.467 12.503 13.053 13.985 20.216 2.647 12.79-5.788 27.296-18.749 32.246-29.017 11.082-52.131-27.142-29.305-48.462 9.293-8.679 23.35-10.33 34.069-4m-24.524 188.108c-16.862 2.751-31.38 13.882-39.429 30.233-4.953 10.061-5.632 13.09-5.631 25.129.001 11.279.807 15.408 4.576 23.452 9.54 20.361 28.525 32.392 51.282 32.498 20.635.097 39.474-12.36 49.52-32.745 3.129-6.351 3.848-10.677 3.848-23.169 0-13.342-.624-16.63-4.744-25.021-10.705-21.798-35.211-34.325-59.422-30.377m26.247 15.886c14.88 6.235 25.08 21.95 25.092 38.658.011 14.275-2.729 21.52-11.608 30.692-14.497 14.976-36.728 17.43-53.377 5.892-13.959-9.674-21.005-28.329-17.171-45.462 2.79-12.467 8.843-20.82 19.525-26.947 7.467-4.282 10.759-5.105 20.472-5.119 6.367-.008 14.047 1.02 17.067 2.286" fill-rule="evenodd"/></svg>
